<?xml version="1.0" encoding="utf-8"?>
<!-- Generator: Adobe Illustrator 24.0.2, SVG Export Plug-In . SVG Version: 6.00 Build 0)  -->
<svg version="1.1" id="Layer_1" xmlns="http://www.w3.org/2000/svg" xmlns:xlink="http://www.w3.org/1999/xlink" x="0px" y="0px"
	 viewBox="0 0 608.68 323.5" style="enable-background:new 0 0 608.68 323.5;" xml:space="preserve">
<style type="text/css">
	.st0{fill:url(#);}
	.st1{fill:#47BCC2;}
	.st2{fill:#B28E45;}
	.st3{fill:none;stroke:#8A211D;stroke-width:0.75;stroke-linecap:round;stroke-linejoin:round;stroke-miterlimit:10;}
	.st4{clip-path:url(#SVGID_2_);}
	.st5{clip-path:url(#SVGID_4_);}
	.st6{fill:#8A211D;}
	.st7{fill:#547C46;}
	.st8{fill:#B9E0E6;}
	.st9{fill-rule:evenodd;clip-rule:evenodd;fill:#936037;}
	.st10{fill-rule:evenodd;clip-rule:evenodd;fill:url(#);}
</style>
<g>
	<path class="st1" d="M314.3,112.84v127.7c0,14.15-8.05,25.43-24.19,33.85c-7.34,3.59-27.05-10.02-35.47-8.6
		c6.25-3.04,11.42-6.32,15.45-9.82c4.01-3.48,6.94-7.18,8.74-11.13c2.33-5.39,3.5-12.19,3.5-20.44v-25.27
		c-3.26,3.24-6.7,5.37-10.31,6.36c-1.37,0.38-2.77,0.6-4.21,0.64c0,0-14.4,0.01-35.35,0.01c5.96-7.85,7.55-22.15-1.15-26.94
		c-1.97-1.11-4.1-1.95-6.25-2.7c-2.64-0.93-5.37-1.71-8-2.59c-8.38-2.84-9.78-5.32-4.97-12.57c2.44-3.67,5.05-7.03,7.02-11.05
		c1.98-4.04,3.54-8.29,4.65-12.65c2.82-11.09-0.83-20.05-13.28-33.01c-0.02-0.02,14.55-0.09,14.58-0.09
		c6.55,0.05,12.09,1.61,13.21,1.99c3.9,1.32,7.51,3.38,10.56,6.14c7.07,6.4,9.6,16.97,8.4,26.25c-0.83,6.46-0.18,13.42-0.18,19.96
		c0,3.74,0,7.49,0,11.23c0,5.74,2.59,9.58,7.78,11.55c1.44,0.55,2.97,0.82,4.59,0.82h12.9v-77.95L314.3,112.84z"/>
	<path class="st1" d="M395.18,245.98c0.09,0.04,0.2,0.09,0.29,0.13c-0.11-0.02-0.24-0.04-0.35-0.04
		C395.13,246.04,395.15,246,395.18,245.98z"/>
	<path class="st1" d="M380.01,236.29c-2.37-2.06-4.35-4.19-5.94-6.39c-1.13-1.55-2.06-3.13-2.79-4.74
		c-2.19-5.05-3.35-11.35-3.48-18.93v-26.76v-16.67V51.03l-31.99-8.34v50.46v127.7c0,14.1,7.98,25.34,24.01,33.77
		c0.07,0.02,0.11,0.07,0.18,0.09c1.24,0.6,2.82,0.73,4.63,0.49c0,0,0.02,0.02,0.04,0c8.87-1.06,23.3-9.98,30.44-9.13
		c0.02-0.02,0.04-0.07,0.07-0.09C389.06,242.96,383.98,239.75,380.01,236.29z"/>
	<path class="st1" d="M189.63,172.13c-0.78,6.36,7.36,8.38,11.97,10.49c0.2,0.09,0.38,0.2,0.55,0.29c0.04,0.02,0.07,0.02,0.11,0.04
		c0.71,0.38,1.42,0.71,2.11,1.09c3.5,1.91,6.85,4.06,6.85,9.07c0.02,3.72-6.32,13.04-6.32,13.04l-27.81-1.02
		c0,0-8.71-15.53-10.37-19.82c-3.78-9.8,1.93-20.19,6.62-29.64c1.54-3.1,3.53-6.08,4-9.5c1.11-8.09-5.74-14.72-12.31-18.13
		c-3.38-1.76-6.95-2.9-10.75-2.87c-0.68,0.01-9.62,0.1-9.62,0.24c0,0,0,80.59,0,80.59s-31.28,0.16-31.97,0.16v-96.24l31.97-8.34
		v6.85c1.49-1.49,3.02-2.73,4.57-3.72c1.4-0.75,2.86-1.4,4.39-1.88c0.4-0.13,0.8-0.27,1.2-0.38c0.4-0.11,0.8-0.22,1.2-0.29
		c1.37-0.35,2.77-0.58,4.19-0.73c2.75-0.29,5.59-0.29,8.34,0c0.8,0.09,1.6,0.18,2.39,0.31c2.22,0.35,4.35,0.89,6.36,1.55
		c4.61,1.53,8.93,3.75,12.95,6.47c0.09,0.07,0.2,0.13,0.29,0.2c4.75,3.57,9.86,7.38,13.73,11.96c3.52,4.16,6.07,9.38,6.02,14.83
		c-0.06,5.84-3.06,11.04-6.64,15.46c-3.76,4.64-7.47,8.93-11.03,13.75c-0.31,0.42-0.62,0.84-0.91,1.29
		C190.7,168.73,189.83,170.35,189.63,172.13z"/>
	<path class="st1" d="M481.77,183.77c-0.09-0.35-0.16-0.66-0.2-1v-11.11c0.02-1.04,0.04-1.95,0.04-2.57c0,0,0-58.42-0.04-58.44
		l-10.29-2.7l-21.76-5.82l-0.03,15.27c-8.07,1.6-28.76-11.77-35.76-8.03c-12.48,7.14-20.31,16.18-23.41,27.11
		c-0.07,0.11-0.09,0.24-0.09,0.35c-0.07,0.22-0.13,0.44-0.18,0.67c-0.04,0.2-0.09,0.42-0.13,0.64c-0.95,4.66-1.17,9.31-1.17,13.99
		c0,3.64,0.13,7.29,0.13,10.95v17.56c0,1.4,0.11,2.77,0.31,4.15c0.16,1.02,0.35,2.02,0.64,2.99c0.6,2.15,1.49,4.23,2.64,6.25
		c0.04,0.11,0.11,0.2,0.18,0.31c1,1.57,2.06,2.97,3.24,4.21c1.8,1.97,3.81,3.59,6.01,4.77c2.22,1.22,4.68,2.04,7.29,2.48
		c0.44,0.07,0.89,0.13,1.33,0.18c0.47,0.04,0.91,0.09,1.37,0.11c0.58,0.02,1.15,0.04,1.73,0.04h20.97c0.49,0,1-0.02,1.53-0.07
		c0.31-0.02,0.62-0.04,0.95-0.09c0.29-0.04,0.58-0.07,0.86-0.11c0.89-0.18,1.73-0.4,2.55-0.66c0.49-0.16,0.98-0.33,1.46-0.55
		c0.24-0.11,0.47-0.2,0.71-0.31c0.24-0.11,0.49-0.22,0.73-0.35c0.24-0.11,0.47-0.24,0.69-0.38c0.38-0.2,0.75-0.42,1.13-0.67
		c0.24-0.16,0.49-0.35,0.75-0.53c0.38-0.27,0.75-0.55,1.11-0.86c0.27-0.22,0.53-0.42,0.8-0.67c0.47-0.42,0.91-0.89,1.35-1.35
		c0.07-0.07,0.11-0.13,0.18-0.2c0.22-0.27,0.44-0.53,0.67-0.8c0-0.02,0.02-0.04,0.04-0.07c0.2-0.27,0.42-0.53,0.6-0.8
		c0.24-0.29,0.47-0.6,0.67-0.91c0.38-0.53,0.71-1.09,1.04-1.68c0.16-0.27,0.31-0.53,0.44-0.8c0.24-0.42,0.47-0.86,0.66-1.31
		c0.04-0.09,0.09-0.18,0.13-0.27c0.09,0.09,0.18,0.2,0.29,0.33c0.09,0.13,0.18,0.29,0.27,0.51c0.22,0.31,0.44,0.6,0.71,0.89
		c0.16,0.27,0.35,0.49,0.55,0.71c1.18,1.44,2.48,2.75,3.88,3.9c0.44,0.38,0.91,0.73,1.4,1.11c0.44,0.31,0.91,0.62,1.4,0.93
		c0.24,0.16,0.49,0.31,0.73,0.44c0.44,0.27,0.91,0.51,1.35,0.78c1.35,0.71,2.75,1.31,4.26,1.82c0.2,0.07,0.4,0.13,0.62,0.22
		c0.13,0.04,0.29,0.07,0.44,0.13c1.02,0.33,2.08,0.6,3.19,0.82c1.11,0.22,2.24,0.4,3.41,0.53c0.93,0.11,1.88,0.2,2.86,0.24
		c0.47,0.02,0.98,0.04,1.46,0.04c0.33,0.02,0.73,0.02,1.13,0.02h10.75c0.44,0,0.89-0.02,1.35-0.07c0.02,0,0.02,0,0.04,0
		c0.18-0.02,0.38-0.04,0.55-0.07c0.2,0,0.4-0.02,0.6-0.07c0.13,0,0.27-0.02,0.4-0.07c0.22-0.04,0.44-0.09,0.67-0.16
		C487.95,197.13,483.21,190.53,481.77,183.77z M449.6,182.48h-16.78c-1.6,0-3.3-0.35-5.1-1.06c-5.01-2.15-7.52-6.01-7.52-11.57
		v-11.02c0-3.13,0.18-6.07,0.53-8.8c0.51-4.86,1.55-9.11,3.1-12.75c0.18-0.42,0.38-0.82,0.6-1.26c0.04-0.09,0.11-0.2,0.16-0.29
		c2.51-5.1,6.83-9.76,12.39-11.17c0.2-0.07,0.42-0.11,0.62-0.16c0.93-0.18,10.73-0.11,11.88,0.11c0.07,0,0.11,0,0.11,0.02V182.48z"
		/>
</g>
</svg>
