<svg width="1463" height="890" viewBox="0 0 1463 890" fill="none" xmlns="http://www.w3.org/2000/svg">
<g filter="url(#filter0_d_565_7)">
<path d="M769.388 266.336V751.17C769.388 804.893 738.827 847.719 677.553 879.687C649.688 893.317 574.861 841.645 542.896 847.036C566.623 835.494 586.251 823.041 601.55 809.753C616.773 796.54 627.897 782.493 634.73 767.496C643.576 747.032 648.018 721.215 648.018 689.892V593.95C635.641 606.252 622.582 614.339 608.877 618.097C603.676 619.54 598.361 620.375 592.894 620.527C592.894 620.527 538.226 620.565 458.692 620.565C481.319 590.761 487.355 536.469 454.326 518.283C446.847 514.069 438.761 510.879 430.599 508.032C420.577 504.501 410.212 501.54 400.228 498.199C368.414 487.416 363.099 478 381.36 450.475C390.623 436.541 400.532 423.784 408.011 408.521C415.527 393.183 421.45 377.047 425.664 360.494C436.369 318.389 422.513 284.371 375.248 235.166C375.172 235.09 430.485 234.824 430.599 234.824C455.465 235.014 476.497 240.937 480.749 242.379C495.555 247.391 509.26 255.212 520.839 265.691C547.679 289.99 557.284 330.12 552.729 365.353C549.578 389.88 552.045 416.305 552.045 441.135C552.045 455.334 552.045 469.572 552.045 483.771C552.045 505.564 561.878 520.143 581.581 527.623C587.048 529.711 592.856 530.736 599.006 530.736H647.98V234.786L769.388 266.336Z" fill="#47BCC2"/>
<path d="M1076.44 771.823C1076.78 771.975 1077.2 772.165 1077.54 772.317C1077.12 772.241 1076.63 772.165 1076.21 772.165C1076.25 772.051 1076.32 771.899 1076.44 771.823Z" fill="#47BCC2"/>
<path d="M1018.85 735.034C1009.85 727.213 1002.33 719.126 996.297 710.773C992.007 704.889 988.477 698.89 985.705 692.777C977.391 673.604 972.988 649.685 972.494 620.906V519.308V456.017V31.6642L851.048 0V191.58V676.414C851.048 729.947 881.343 772.621 942.199 804.627C942.465 804.703 942.617 804.893 942.882 804.969C947.59 807.247 953.588 807.74 960.46 806.829C960.46 806.829 960.535 806.905 960.611 806.829C994.285 802.804 1049.07 768.938 1076.17 772.165C1076.25 772.09 1076.32 771.9 1076.44 771.824C1053.21 760.358 1033.92 748.17 1018.85 735.034Z" fill="#47BCC2"/>
<path d="M296.093 491.44C293.132 515.587 324.035 523.256 341.536 531.267C342.295 531.609 342.979 532.027 343.624 532.368C343.776 532.444 343.89 532.444 344.042 532.52C346.737 533.963 349.432 535.216 352.052 536.659C365.339 543.91 378.057 552.073 378.057 571.094C378.133 585.218 354.064 620.603 354.064 620.603L248.487 616.73C248.487 616.73 215.42 557.768 209.118 541.48C194.768 504.273 216.445 464.826 234.25 428.947C240.097 417.178 247.652 405.864 249.436 392.879C253.65 362.164 227.645 336.992 202.702 324.045C189.871 317.363 176.318 313.035 161.891 313.149C159.31 313.187 125.37 313.529 125.37 314.06V620.033C125.37 620.033 6.6195 620.641 4 620.641V255.25L125.37 223.586V249.593C131.027 243.936 136.835 239.228 142.72 235.469C148.035 232.622 153.577 230.154 159.386 228.332C160.904 227.838 162.423 227.306 163.941 226.889C165.46 226.471 166.979 226.054 168.497 225.788C173.698 224.459 179.013 223.586 184.404 223.016C194.844 221.915 205.626 221.915 216.066 223.016C219.103 223.358 222.14 223.7 225.139 224.193C233.567 225.522 241.653 227.572 249.284 230.078C266.785 235.887 283.186 244.315 298.447 254.642C298.789 254.908 299.206 255.136 299.548 255.402C317.581 268.956 336.98 283.421 351.672 300.81C365.036 316.604 374.716 336.423 374.527 357.114C374.299 379.287 362.91 399.03 349.319 415.811C335.044 433.427 320.96 449.715 307.445 468.015C306.268 469.61 305.091 471.204 303.99 472.913C300.156 478.532 296.853 484.682 296.093 491.44Z" fill="#47BCC2"/>
<path d="M1405.17 535.633C1404.83 534.305 1404.56 533.128 1404.41 531.837V489.656C1404.48 485.707 1404.56 482.252 1404.56 479.898C1404.56 479.898 1404.56 258.097 1404.41 258.021L1365.34 247.77L1282.73 225.674L1282.62 283.649C1251.98 289.724 1173.44 238.962 1146.86 253.162C1099.48 280.27 1069.76 314.592 1057.99 356.089C1057.72 356.507 1057.65 357 1057.65 357.418C1057.38 358.253 1057.15 359.089 1056.96 359.962C1056.81 360.721 1056.62 361.556 1056.47 362.392C1052.86 380.084 1052.03 397.739 1052.03 415.507C1052.03 429.327 1052.52 443.185 1052.52 457.08V523.75C1052.52 529.065 1052.94 534.267 1053.7 539.506C1054.31 543.379 1055.03 547.175 1056.13 550.858C1058.41 559.021 1061.79 566.918 1066.15 574.587C1066.3 575.005 1066.57 575.346 1066.83 575.764C1070.63 581.725 1074.65 587.04 1079.13 591.748C1085.97 599.228 1093.6 605.378 1101.95 609.858C1110.38 614.49 1119.72 617.603 1129.63 619.274C1131.3 619.54 1133.01 619.767 1134.68 619.957C1136.46 620.109 1138.13 620.299 1139.88 620.375C1142.08 620.451 1144.24 620.527 1146.44 620.527H1226.05C1227.91 620.527 1229.85 620.451 1231.86 620.261C1233.04 620.185 1234.22 620.109 1235.47 619.919C1236.57 619.767 1237.67 619.654 1238.73 619.502C1242.11 618.818 1245.3 617.983 1248.42 616.996C1250.28 616.388 1252.14 615.743 1253.96 614.908C1254.87 614.49 1255.74 614.148 1256.65 613.731C1257.56 613.313 1258.51 612.896 1259.42 612.402C1260.34 611.984 1261.21 611.491 1262.04 610.959C1263.49 610.2 1264.89 609.365 1266.33 608.415C1267.25 607.808 1268.19 607.087 1269.18 606.403C1270.62 605.378 1272.03 604.315 1273.4 603.138C1274.42 602.303 1275.41 601.543 1276.43 600.594C1278.22 599 1279.89 597.215 1281.56 595.469C1281.82 595.203 1281.98 594.975 1282.24 594.709C1283.08 593.684 1283.91 592.697 1284.78 591.672C1284.78 591.596 1284.86 591.52 1284.94 591.406C1285.7 590.381 1286.53 589.394 1287.21 588.369C1288.13 587.268 1289 586.091 1289.76 584.914C1291.2 582.902 1292.45 580.776 1293.71 578.536C1294.31 577.511 1294.88 576.523 1295.38 575.498C1296.29 573.904 1297.16 572.233 1297.88 570.525C1298.03 570.183 1298.22 569.841 1298.38 569.5C1298.72 569.841 1299.06 570.259 1299.48 570.753C1299.82 571.246 1300.16 571.854 1300.5 572.689C1301.34 573.866 1302.17 574.967 1303.2 576.068C1303.8 577.093 1304.53 577.928 1305.28 578.764C1309.76 584.231 1314.7 589.204 1320.01 593.57C1321.69 595.013 1323.47 596.342 1325.33 597.785C1327 598.962 1328.78 600.139 1330.64 601.316C1331.56 601.923 1332.5 602.493 1333.42 602.986C1335.09 604.011 1336.87 604.922 1338.54 605.948C1343.67 608.643 1348.98 610.921 1354.71 612.858C1355.47 613.123 1356.23 613.351 1357.07 613.693C1357.56 613.845 1358.17 613.959 1358.74 614.186C1362.61 615.439 1366.63 616.464 1370.85 617.3C1375.06 618.135 1379.35 618.818 1383.79 619.312C1387.32 619.729 1390.93 620.071 1394.65 620.223C1396.44 620.299 1398.37 620.375 1400.19 620.375C1401.45 620.451 1402.97 620.451 1404.48 620.451H1445.3C1446.97 620.451 1448.67 620.375 1450.42 620.185C1450.5 620.185 1450.5 620.185 1450.57 620.185C1451.26 620.109 1452.01 620.033 1452.66 619.919C1453.42 619.919 1454.18 619.843 1454.94 619.654C1455.43 619.654 1455.96 619.578 1456.46 619.388C1457.29 619.236 1458.13 619.046 1459 618.78C1428.63 586.357 1410.63 561.299 1405.17 535.633ZM1283.04 530.736H1219.33C1213.26 530.736 1206.81 529.407 1199.97 526.711C1180.95 518.548 1171.42 503.893 1171.42 482.784V440.945C1171.42 429.061 1172.11 417.899 1173.44 407.534C1175.37 389.082 1179.32 372.946 1185.21 359.127C1185.89 357.532 1186.65 356.013 1187.48 354.343C1187.63 354.001 1187.9 353.583 1188.09 353.242C1197.62 333.879 1214.02 316.186 1235.13 310.833C1235.89 310.567 1236.72 310.415 1237.48 310.226C1241.01 309.542 1278.22 309.808 1282.58 310.643C1282.85 310.643 1283 310.643 1283 310.719V530.736H1283.04Z" fill="#47BCC2"/>
</g>
<defs>
<filter id="filter0_d_565_7" x="0" y="0" width="1463" height="889.985" filterUnits="userSpaceOnUse" color-interpolation-filters="sRGB">
<feFlood flood-opacity="0" result="BackgroundImageFix"/>
<feColorMatrix in="SourceAlpha" type="matrix" values="0 0 0 0 0 0 0 0 0 0 0 0 0 0 0 0 0 0 127 0" result="hardAlpha"/>
<feOffset dy="4"/>
<feGaussianBlur stdDeviation="2"/>
<feComposite in2="hardAlpha" operator="out"/>
<feColorMatrix type="matrix" values="0 0 0 0 0 0 0 0 0 0 0 0 0 0 0 0 0 0 0.25 0"/>
<feBlend mode="normal" in2="BackgroundImageFix" result="effect1_dropShadow_565_7"/>
<feBlend mode="normal" in="SourceGraphic" in2="effect1_dropShadow_565_7" result="shape"/>
</filter>
</defs>
</svg>
